<?xml version="1.0" encoding="UTF-8" standalone="no"?>
<svg
   width="868.29681pt"
   height="492.88083pt"
   viewBox="0 0 868.29681 492.88083"
   version="1.1"
   id="svg44"
   sodipodi:docname="Nebula.svg"
   xml:space="preserve"
   inkscape:version="1.2.1 (9c6d41e410, 2022-07-14)"
   xmlns:inkscape="http://www.inkscape.org/namespaces/inkscape"
   xmlns:sodipodi="http://sodipodi.sourceforge.net/DTD/sodipodi-0.dtd"
   xmlns="http://www.w3.org/2000/svg"
   xmlns:svg="http://www.w3.org/2000/svg"><defs
     id="defs48" /><sodipodi:namedview
     id="namedview46"
     pagecolor="#505050"
     bordercolor="#eeeeee"
     borderopacity="1"
     inkscape:showpageshadow="0"
     inkscape:pageopacity="0"
     inkscape:pagecheckerboard="0"
     inkscape:deskcolor="#505050"
     inkscape:document-units="pt"
     showgrid="false"
     inkscape:zoom="0.68438615"
     inkscape:cx="808.02336"
     inkscape:cy="343.3734"
     inkscape:window-width="1920"
     inkscape:window-height="1025"
     inkscape:window-x="-9"
     inkscape:window-y="17"
     inkscape:window-maximized="1"
     inkscape:current-layer="#fdfefeff" /><g
     id="#fdfefeff"
     transform="translate(-77.26334,-306.06772)"><g
       id="g1906"><path
         fill="#fdfefe"
         opacity="1"
         d="m 184.86,311.97 c 12.82,-6.75 28.46,-7.65 42.14,-3.01 6.08,2.15 12.64,5 16.16,10.71 -2.87,0 -4.96,-2.25 -7.32,-3.55 -10.79,-6.11 -23.66,-7.91 -35.86,-6.14 -8.34,1.53 -16.05,5.36 -23.04,10.06 l -0.79,-0.44 c 1.73,-3.54 5.53,-5.51 8.71,-7.63 z"
         id="path15" /><path
         fill="#fdfefe"
         opacity="1"
         d="m 193.62,328.43 c 17.18,-3.11 35.85,-0.55 50.59,9.2 5.51,3.73 10.49,8.25 14.85,13.28 3.31,3.78 5.6,8.3 8.51,12.38 19.56,3.52 39.57,5.84 58.26,12.98 4.73,2.07 10.26,4.21 12.52,9.28 0.81,2.68 0.17,5.87 -2.17,7.6 -10.01,8.81 -23.47,11.71 -36.03,14.96 -14.81,3.14 -29.86,5.43 -44.98,6.2 4.85,-3.84 11.12,-4.88 16.64,-7.41 7.68,-3.43 16.18,-6.01 22.09,-12.33 1.17,-1.52 2.58,-3.41 1.76,-5.43 -1.41,-4.22 -5.51,-6.56 -9.06,-8.78 -7.97,-4.38 -16.86,-6.69 -25.71,-8.51 -17.03,-3.69 -34.52,-4.67 -51.91,-4.62 -20.99,-0.29 -42.2,1.09 -62.6,6.34 -8.58,2.57 -17.58,5.34 -24.29,11.55 -1.43,1.81 -3.42,4.38 -1.99,6.73 1.33,2.79 3.81,4.79 6.32,6.48 5.44,3.59 11.57,5.91 17.49,8.59 5.63,2.57 12.03,3.77 16.84,7.92 -6.16,-1.23 -12.5,-0.79 -18.65,-2.01 -10.22,-1.37 -20.33,-3.4 -30.37,-5.71 -10.84,-2.69 -21.84,-6.25 -30.74,-13.23 -2.18,-1.88 -4.48,-4.73 -3.49,-7.79 0.81,-3.9 4.32,-6.4 7.72,-7.97 14.4,-6.86 30.38,-9 45.88,-11.98 5.92,-1.25 11.97,-1.8 17.89,-3.03 1.92,-2.26 2.87,-5.25 4.69,-7.62 9.6,-13.27 23.62,-23.92 39.94,-27.07 m -4.57,17.95 c -7.82,2.31 -16.04,5.97 -20.62,13.05 16.52,-0.8 33.05,-2.75 49.6,-1.65 9.95,-0.1 19.83,1.52 29.75,1.41 -6.35,-8 -16.29,-12.61 -26.28,-13.91 -10.74,-1.87 -21.86,-1.48 -32.45,1.1 z"
         id="path17" /><path
         id="path19"
         d="m 211.0402,384.89975 c -15.70999,0.12 -31.91815,-0.27427 -46.89991,4.42969 -6.01264,1.88784 -13.35679,3.81549 -16.46045,9.30029 -0.56001,0.98966 -0.4619,2.41639 0.0908,3.41016 2.1181,3.80839 7.02405,5.23499 10.91895,7.18945 5.19099,2.60483 10.79989,4.31994 16.37988,5.93994 1.16,0.09 1.70084,1.02022 2.11084,1.97022 -2.37,0.6 -5.00961,0.79984 -6.84961,2.58984 2.78,3.01 6.80992,4.18575 10.59961,5.30127 8.30529,2.44471 17.16967,3.19073 25.81934,2.81982 13.25156,-0.56825 29.62487,-1.66086 39.04099,-7.69044 -1.61999,-2.8 -5.71012,-2.34989 -8.37011,-3.62989 8.90293,-4.7609 30.11723,-7.77987 30.99902,-15.25049 0.34371,-6.02194 -8.8721,-8.60712 -14.45947,-10.87939 -13.36103,-5.43365 -28.50994,-5.02049 -42.91992,-5.50049 z"
         sodipodi:nodetypes="caaaacccaacccacc"
         style="fill:#fdfefe;fill-opacity:1" /></g><g
       id="#fdfefeff-7"
       transform="translate(-31.516782,-655.21364)"><path
         fill="#fdfefe"
         opacity="1"
         d="m 241.79692,1082.9022 c -0.67,10.77 -0.32,21.58 -0.42,32.37 0.16,12.36 -0.24,24.73 0.37,37.07 0.21,6.88 5.53,11.85 8.37,17.71 -0.61,-11.23 -1.31,-22.51 -0.32,-33.74 0.53,-5.04 0.13,-10.12 0.8,-15.14 2.05,10.06 0.42,20.45 1.58,30.62 0.95,1.11 1.86,2.26 2.72,3.45 -1.08,3.69 -2.01,7.42 -2.68,11.21 -0.12,1.19 -1.35,3.24 -1.35,3.24 0,0 21.90754,28.3502 31.9,39.56 0.12789,-30.128 -1.35,-86.15 -1.35,-86.15 10.93097,-0.9852 33.76,-0.59 33.76,-0.59 l -33.43,-5.04 c 0,0 -0.01,-6.92 -0.06,-10.37 15.37,-0.05 30.75,0.12 46.12,0.02 0.27,27.41 -0.16,54.81 -0.13,82.22 -0.4,10.66 -0.29,21.34 -0.24,32.01 0.62,10.64 -0.12,21.3 -0.08,31.96 -0.05,35.05 1.16,70.1 0.96,105.16 -2.6,-4.28 -5.67,-8.23 -8.64,-12.24 -21.66,-31.37 -43.52,-62.62 -64.29,-94.58 -10.04,-15.62 -21.32,-30.42 -30.58,-46.53 -1.89,-2.79 -3.57,-5.74 -4.46,-9.01 -2.52,-0.13 -5.71,0.12 -7.3,-2.28 -2.97,-3.8 -5.52,-7.94 -7.47,-12.34 -3.3,2.08 -6.25,4.66 -9.6,6.66 -0.08,5.46 0.08,10.92 0.43,16.37 -3.44,0.57 -6.86,1.26 -10.19,2.3 3.54,4.14 6.91,8.48 9.41,13.35 1.4,2.83 3.25,5.82 2.77,9.11 -2.18,13.82 -1.74,27.86 -2.41,41.8 -4.99,-4.01 -10.06,-8.03 -15.7,-11.08 -5.27,9.45 -11.87,18.12 -17.36,27.47 -1.98,3.58 -6.76,5.3 -7.2,9.76 1.92,-2.97 4.36,-5.55 6.79,-8.09 2.97,-0.13 5.93,0.5 8.91,0.56 -2.5,4.95 -4.64,10.11 -7.59,14.83 -3.34,5.35 -6.84,10.64 -9.7,16.27 -1.37,2.98 -2.91,6.05 -2.92,9.41 -0.19,5.23 -0.71,10.44 -1.26,15.65 -1.59,-2.5 -0.79,-5.75 -1.1,-8.54 0.45,-17.32 -0.23,-34.67 0.94,-51.96 0.45,-28.32 1.19,-56.67 0.12,-84.99 0.15,-31.1 0.34,-62.2 0.21,-93.3 15.98,0.03 31.97,0.22 47.95,0.04 0.39,-3.41 0.55,-6.86 -0.33,-10.21 3.98,0.16 7.63,2.25 9.43,5.86 9.73,16.06 20.47,31.48 30.07,47.62 0.23,-22.11 -0.19426,-45.4868 -0.0143,-67.5868 m -73.6657,39.9268 c 1.61,0.58 3.32,0.66 5.02,0.58 9.89,-0.26 19.79,0.22 29.69,-0.15 0.14,-2.17 0.18,-4.35 0.13,-6.51 -11.68,1.67 -23.21,4.16 -34.84,6.08 z"
         id="path19-6"
         sodipodi:nodetypes="ccccccccccccccccccccccccccccccccccccccccccccccccccccccc" /><path
         fill="#fdfefe"
         opacity="1"
         d="m 149.93692,1086.7522 c 16.11,-0.47 32.23,0.1 48.34,-0.26 0.09,2.45 0.07,4.92 -0.1,7.38 -16.1,0.16 -32.21,-0.04 -48.31,0.02 0.05,-2.38 0.09,-4.76 0.07,-7.14 z"
         id="path21" /><path
         fill="#fdfefe"
         opacity="1"
         d="m 281.5484,1086.7507 c 15.34,0.08 30.89852,-0.2785 46.23852,-0.1385 0.07,2.16 0.07,4.32 0.03,6.49 -15.5,-0.07 -31.03,0.4 -46.51,-0.16 0.15,-2.15 0.0715,-4.0615 0.24148,-6.1915 z"
         id="path23"
         sodipodi:nodetypes="ccccc" /><path
         fill="#fdfefe"
         opacity="1"
         d="m 281.71692,1096.9922 c 15.36,0.07 30.73,-0.13 46.1,-0.06 0.02,2.37 0,4.74 -0.05,7.12 -15.36,-0.03 -30.72,-0.22 -46.08,-0.2 0.01,-2.29 0.02,-4.57 0.03,-6.86 z"
         id="path25" /><path
         fill="#fdfefe"
         opacity="1"
         d="m 149.94118,1097.6879 c 15.38,-0.1 47.16833,0.1543 47.16833,0.1543 0,0 0.43741,3.65 0.23741,5.69 -15.74,0.63 -31.51,0.32 -47.26,0.28 -0.08,-2.01 -0.0557,-4.1243 -0.14574,-6.1243 z"
         id="path27"
         sodipodi:nodetypes="ccccc" /><path
         fill="#fdfefe"
         opacity="1"
         d="m 399.94692,1103.6522 c 1.87,-1.61 4.37,-1.6 6.69,-1.39 17.17,-0.2 34.34,-0.14 51.5,0.23 -0.12,4.45 0.28,8.92 -0.03,13.37 -4.71,3.68 -10.48,5.65 -15.8,8.27 -10.73,5.32 -21.65,10.24 -32.55,15.19 -3.87,1.68 -7.69,4.18 -12.09,3.87 -12.78,-0.07 -25.57,0.09 -38.35,-0.1 0.43,-3.76 -1.12,-8.22 1.05,-11.54 13.11,-9.4 26.38,-18.61 39.58,-27.9 z"
         id="path29" /><path
         fill="#fdfefe"
         opacity="1"
         d="m 481.23692,1102.6222 c 15.86,-0.85 31.77,-0.05 47.65,0.05 -0.36,26.62 0.29,53.25 -0.41,79.86 6.05,-9.84 16.7,-16.65 27.98,-18.82 14.7,-2.73 30.72,-0.11 42.95,8.79 14.03,9.07 22.67,24.72 26.1,40.78 2.33,14.25 1.89,29.26 -3.01,42.95 -5.45,14.74 -16.4,27.72 -30.91,34.13 -12.63,5.55 -27.23,6.83 -40.57,3.28 -11.37,-3.07 -20.78,-10.97 -27.69,-20.27 0.02,6.83 0.12,13.66 -0.08,20.49 -14.12,0.15 -28.23,0.01 -42.35,0.02 0.01,-63.75 0.49,-127.51 0.34,-191.26 m 58.65,102.86 c -8.92,7.7 -11.84,20.58 -9.25,31.79 1.36,6.5 5.68,12.25 11.37,15.64 5.02,3.75 11.58,4.17 17.6,3.53 1.61,-0.42 3.38,-0.95 4.42,-2.35 2.46,0.41 4.51,-1.28 6.25,-2.83 12.64,-11.49 12.79,-34.08 -0.4,-45.24 -8.31,-6.99 -21.55,-7.57 -29.99,-0.54 z"
         id="path31" /><path
         fill="#fdfefe"
         opacity="1"
         d="m 801.04692,1111.8022 c 15.73,0.05 31.47,0.07 47.2,0.04 0.66,3.45 0.43,6.97 0.44,10.46 -0.04,22.01 -0.03,44.02 -0.06,66.03 -0.51,15.31 0.21,30.62 0.03,45.93 -0.02,19.87 0.19,39.75 -0.27,59.61 -15.8,0.06 -31.59,0.09 -47.39,-0.04 -0.11,-60.67 -0.1,-121.35 0.05,-182.03 z"
         id="path33" /><path
         fill="#fdfefe"
         opacity="1"
         d="m 382.12692,1164.1122 c 19.36,-3.89 40.8,-3.26 57.99,7.46 9.16,4.92 16.5,12.7 21.71,21.62 7.66,14.21 9.56,30.88 7.47,46.73 -30.35,0.13 -60.7,0.02 -91.05,0.08 2.57,7.2 7.33,13.99 14.47,17.21 7.58,3.8 16.47,3.58 24.48,1.42 1.11,-0.23 1.41,-2 2.67,-1.57 2.91,0.63 5.39,-1.56 7.62,-3.11 12.02,-0.5 24.07,-0.22 36.1,-0.06 -0.91,6.7 -4.96,12.3 -8.84,17.62 -4.35,5.95 -10.12,10.64 -16.06,14.93 -14.2,8.96 -31.79,11.06 -48.13,8.24 -31.51,-4.02 -56.81,-33.79 -56.83,-65.37 -0.32,-12.79 2.36,-25.88 9.22,-36.81 8.4,-14.3 22.99,-24.83 39.18,-28.39 m 11.13,31.99 c -7.34,3.12 -12.51,10.11 -14.27,17.79 16.53,-0.02 33.07,0.26 49.61,0.1 -1.43,-7.15 -6.44,-13.27 -12.81,-16.66 -6.87,-3.58 -15.31,-3.88 -22.53,-1.23 z"
         id="path35" /><path
         fill="#fdfefe"
         opacity="1"
         d="m 644.32692,1169.3722 c -0.09,-1.56 0.2,-3.07 0.58,-4.56 15.31,0.48 30.64,-0.11 45.95,0.3 -0.02,21.74 -0.28,43.48 0.02,65.22 0.35,8.36 1.35,17.82 7.75,23.92 6.28,4.83 15.16,5.38 22.38,2.5 5.2,-2 8.25,-7.19 9.82,-12.27 3.14,-9.73 2.12,-20.08 2.86,-30.12 0.28,-16.49 -0.15,-32.99 0.15,-49.48 15.16,0.16 30.33,0.15 45.49,0.01 0.62,4.13 0.42,8.31 0.45,12.47 -0.02,37.68 0.02,75.36 -0.06,113.04 -0.09,1.18 -0.24,2.37 -0.45,3.56 -12.99,-0.09 -25.99,0.01 -38.99,-0.13 0.21,-7.32 -0.16,-14.64 -0.07,-21.95 -4.65,6.2 -9.1,12.92 -16.02,16.85 -11.77,6.63 -25.94,8.16 -39.13,6 -15.44,-2.52 -29.57,-13.23 -35.26,-27.93 -6.6,-15.61 -5.39,-32.89 -5.48,-49.45 0.03,-15.99 0.03,-31.99 0.01,-47.98 z"
         id="path37" /><path
         fill="#fdfefe"
         opacity="1"
         d="m 894.05692,1193.4522 c 2.9,-8.32 6.32,-16.45 9.38,-24.71 9.08,3.66 18.51,6.73 26.97,11.74 3.55,1.76 4.04,6.01 5.45,9.29 11.07,27.9 22.12,55.8 33.22,83.68 2.85,6.71 5.53,13.49 8,20.35 -11.53,0.01 -23.05,0.26 -34.58,0.02 -1.77,-5.5 -3.98,-10.83 -5.84,-16.29 -13.16,-0.27 -26.36,-0.67 -39.49,0.07 -1.8,5.47 -3.66,10.94 -6.05,16.19 -11.98,0.22 -23.95,0.13 -35.93,0.03 4.83,-13.28 10.06,-26.4 15.65,-39.38 7.69,-20.35 15.81,-40.53 23.22,-60.99 m 15.34,16.92 c -3.26,13.9 -5.05,28.11 -7.41,42.19 10.25,0.15 20.5,0.19 30.75,0.1 -2.3,-6.04 -5.04,-11.91 -8.09,-17.59 -1.59,-3.23 -5.75,-3.32 -8.16,-5.65 -2.71,-6.2 -4.18,-12.91 -7.09,-19.05 z"
         id="path39" /><path
         fill="#fdfefe"
         opacity="1"
         d="m 202.59692,1222.6822 c 6.36,-5.67 11.46,-12.59 17.35,-18.73 1.58,1.77 3.2,3.52 4.89,5.2 -0.74,8.46 -3.95,25.14 -3.95,25.14 0,0 16.80542,24.5793 26.46,38.96 0,0 -6.15,14.63 -8.42,22.24 -0.91,3.24 -2.09,6.39 -3.42,9.48 3.53,2.53 7.61,4.1 11.35,6.26 -1.94,11.04 -4.16,22.02 -6.03,33.06 -0.23,2 -1.29,4.05 -0.67,6.07 6.15,6.7 11.57,14.01 17.61,20.81 6.16,7.74 12.96,14.96 18.92,22.87 -1.65,3.13 -2.57,6.56 -3.78,9.87 -5.99,16.73 -12.13,33.4 -17.74,50.25 0.36,-15.28 -0.02,-30.58 0.1,-45.86 0.2,-2.59 -1.73,-4.57 -3.03,-6.57 -10.62,-15.11 -20.53,-30.73 -31.68,-45.46 1.39,-7.6 3.83,-14.95 5.65,-22.45 1.08,-4.04 1.86,-8.18 3.41,-12.07 -5.18,-2.21 -9.85,-5.54 -14.06,-9.25 5.21,-8.79 10.9,-17.29 16.75,-25.67 -7.15,-15.47 -12.19,-31.89 -20.33,-46.91 -3.03,-5.8 -6.22,-11.51 -9.38,-17.24 z"
         id="path41"
         sodipodi:nodetypes="ccccccccccccccccccccccc" /></g></g></svg>
