<?xml version="1.0" encoding="UTF-8" standalone="no"?>
<svg
   width="667.38635pt"
   height="667.38635pt"
   viewBox="0 0 667.38635 667.38635"
   version="1.1"
   id="svg44"
   sodipodi:docname="Nebula-Ovni.svg"
   xml:space="preserve"
   inkscape:version="1.2.1 (9c6d41e410, 2022-07-14)"
   inkscape:export-filename="Nebula-Ovni.png"
   inkscape:export-xdpi="96"
   inkscape:export-ydpi="96"
   xmlns:inkscape="http://www.inkscape.org/namespaces/inkscape"
   xmlns:sodipodi="http://sodipodi.sourceforge.net/DTD/sodipodi-0.dtd"
   xmlns="http://www.w3.org/2000/svg"
   xmlns:svg="http://www.w3.org/2000/svg"><defs
     id="defs48" /><sodipodi:namedview
     id="namedview46"
     pagecolor="#505050"
     bordercolor="#eeeeee"
     borderopacity="1"
     inkscape:showpageshadow="0"
     inkscape:pageopacity="0"
     inkscape:pagecheckerboard="0"
     inkscape:deskcolor="#505050"
     inkscape:document-units="pt"
     showgrid="false"
     inkscape:zoom="0.68438615"
     inkscape:cx="507.0237"
     inkscape:cy="397.43645"
     inkscape:window-width="1920"
     inkscape:window-height="1025"
     inkscape:window-x="-9"
     inkscape:window-y="17"
     inkscape:window-maximized="1"
     inkscape:current-layer="#fdfefeff" /><g
     id="#fdfefeff"
     transform="translate(-277.80804,-212.91855)"><rect
       style="fill:#000000;fill-opacity:1;stroke:none;stroke-width:5.1;stroke-dasharray:none"
       id="rect2857"
       width="667.38635"
       height="667.38635"
       x="277.80804"
       y="212.91855" /><g
       id="#fdfefeff-6"
       transform="translate(188.30723,221.49716)" /><g
       id="g3856"
       transform="matrix(1.051571,0,0,1.051571,-33.195072,-27.477633)"><g
         id="g1906"
         transform="matrix(2.1947164,0,0,2.1947164,155.35941,-351.41779)"><path
           fill="#fdfefe"
           opacity="1"
           d="m 184.86,311.97 c 12.82,-6.75 28.46,-7.65 42.14,-3.01 6.08,2.15 12.64,5 16.16,10.71 -2.87,0 -4.96,-2.25 -7.32,-3.55 -10.79,-6.11 -23.66,-7.91 -35.86,-6.14 -8.34,1.53 -16.05,5.36 -23.04,10.06 l -0.79,-0.44 c 1.73,-3.54 5.53,-5.51 8.71,-7.63 z"
           id="path15" /><path
           fill="#fdfefe"
           opacity="1"
           d="m 193.62,328.43 c 17.18,-3.11 35.85,-0.55 50.59,9.2 5.51,3.73 10.49,8.25 14.85,13.28 3.31,3.78 5.6,8.3 8.51,12.38 19.56,3.52 39.57,5.84 58.26,12.98 4.73,2.07 10.26,4.21 12.52,9.28 0.81,2.68 0.17,5.87 -2.17,7.6 -10.01,8.81 -23.47,11.71 -36.03,14.96 -14.81,3.14 -29.86,5.43 -44.98,6.2 4.85,-3.84 11.12,-4.88 16.64,-7.41 7.68,-3.43 16.18,-6.01 22.09,-12.33 1.17,-1.52 2.58,-3.41 1.76,-5.43 -1.41,-4.22 -5.51,-6.56 -9.06,-8.78 -7.97,-4.38 -16.86,-6.69 -25.71,-8.51 -17.03,-3.69 -34.52,-4.67 -51.91,-4.62 -20.99,-0.29 -42.2,1.09 -62.6,6.34 -8.58,2.57 -17.58,5.34 -24.29,11.55 -1.43,1.81 -3.42,4.38 -1.99,6.73 1.33,2.79 3.81,4.79 6.32,6.48 5.44,3.59 11.57,5.91 17.49,8.59 5.63,2.57 12.03,3.77 16.84,7.92 -6.16,-1.23 -12.5,-0.79 -18.65,-2.01 -10.22,-1.37 -20.33,-3.4 -30.37,-5.71 -10.84,-2.69 -21.84,-6.25 -30.74,-13.23 -2.18,-1.88 -4.48,-4.73 -3.49,-7.79 0.81,-3.9 4.32,-6.4 7.72,-7.97 14.4,-6.86 30.38,-9 45.88,-11.98 5.92,-1.25 11.97,-1.8 17.89,-3.03 1.92,-2.26 2.87,-5.25 4.69,-7.62 9.6,-13.27 23.62,-23.92 39.94,-27.07 m -4.57,17.95 c -7.82,2.31 -16.04,5.97 -20.62,13.05 16.52,-0.8 33.05,-2.75 49.6,-1.65 9.95,-0.1 19.83,1.52 29.75,1.41 -6.35,-8 -16.29,-12.61 -26.28,-13.91 -10.74,-1.87 -21.86,-1.48 -32.45,1.1 z"
           id="path17" /><path
           id="path19"
           d="m 211.0402,384.89975 c -15.70999,0.12 -31.91815,-0.27427 -46.89991,4.42969 -6.01264,1.88784 -13.35679,3.81549 -16.46045,9.30029 -0.56001,0.98966 -0.4619,2.41639 0.0908,3.41016 2.1181,3.80839 7.02405,5.23499 10.91895,7.18945 5.19099,2.60483 10.79989,4.31994 16.37988,5.93994 1.16,0.09 1.70084,1.02022 2.11084,1.97022 -2.37,0.6 -5.00961,0.79984 -6.84961,2.58984 2.78,3.01 6.80992,4.18575 10.59961,5.30127 8.30529,2.44471 17.16967,3.19073 25.81934,2.81982 13.25156,-0.56825 29.62487,-1.66086 39.04099,-7.69044 -1.61999,-2.8 -5.71012,-2.34989 -8.37011,-3.62989 8.90293,-4.7609 30.11723,-7.77987 30.99902,-15.25049 0.34371,-6.02194 -8.8721,-8.60712 -14.45947,-10.87939 -13.36103,-5.43365 -28.50994,-5.02049 -42.91992,-5.50049 z"
           sodipodi:nodetypes="caaaacccaacccacc"
           style="fill:#fdfefe;fill-opacity:1" /></g><g
         id="#fdfefeff-9"
         transform="translate(218.99166,-61.23796)"><g
           id="g3720"
           transform="matrix(1.2178935,0,0,1.2178935,111.38191,-123.67553)"><g
             id="#fdfefeff-7"
             transform="translate(-164.68864,-627.31954)"><path
               fill="#fdfefe"
               opacity="1"
               d="m 367.26212,1205.5858 c 6.36,-5.67 11.46,-12.59 17.35,-18.73 1.58,1.77 3.2,3.52 4.89,5.2 -0.74,8.46 -3.95,25.14 -3.95,25.14 0,0 16.80542,24.5793 26.46,38.96 0,0 -6.15,14.63 -8.42,22.24 -0.91,3.24 -2.09,6.39 -3.42,9.48 3.53,2.53 7.61,4.1 11.35,6.26 -1.94,11.04 -4.16,22.02 -6.03,33.06 -0.23,2 -1.29,4.05 -0.67,6.07 6.15,6.7 11.57,14.01 17.61,20.81 6.16,7.74 12.96,14.96 18.92,22.87 -1.65,3.13 -2.57,6.56 -3.78,9.87 -5.99,16.73 -12.13,33.4 -17.74,50.25 0.36,-15.28 -0.02,-30.58 0.1,-45.86 0.2,-2.59 -1.73,-4.57 -3.03,-6.57 -10.62,-15.11 -20.53,-30.73 -31.68,-45.46 1.39,-7.6 3.83,-14.95 5.65,-22.45 1.08,-4.04 1.86,-8.18 3.41,-12.07 -5.18,-2.21 -9.85,-5.54 -14.06,-9.25 5.21,-8.79 10.9,-17.29 16.75,-25.67 -7.15,-15.47 -12.19,-31.89 -20.33,-46.91 -3.03,-5.8 -6.22,-11.51 -9.38,-17.24 z"
               id="path41"
               sodipodi:nodetypes="ccccccccccccccccccccccc" /></g></g></g></g><g
       id="#fdfefeff-8"
       transform="translate(-268.67162,-230.00234)"><g
         id="#fdfefeff-7-6"
         transform="translate(-31.516782,-655.21364)" /></g></g></svg>
